<?xml version="1.0" standalone="no"?>
<!DOCTYPE svg PUBLIC "-//W3C//DTD SVG 20010904//EN"
 "http://www.w3.org/TR/2001/REC-SVG-20010904/DTD/svg10.dtd">
<svg version="1.0" xmlns="http://www.w3.org/2000/svg"
 width="225.000000pt" height="225.000000pt" viewBox="0 0 225.000000 225.000000"
 preserveAspectRatio="xMidYMid meet">
<metadata>
Created by potrace 1.16, written by Peter Selinger 2001-2019
</metadata>
<g transform="translate(0.000000,225.000000) scale(0.100000,-0.100000)"
fill="#000000" stroke="none">
<path d="M719 2240 c-44 -13 -74 -38 -98 -81 -19 -33 -22 -51 -19 -95 8 -94
72 -154 165 -154 64 0 103 18 138 64 99 129 -30 314 -186 266z"/>
<path d="M1615 1864 c-65 -34 -95 -82 -95 -154 0 -131 133 -210 249 -148 52
28 91 91 91 146 0 122 -140 211 -245 156z"/>
<path d="M492 1843 c-61 -30 -70 -53 -128 -359 -30 -158 -54 -301 -54 -318 0
-17 10 -93 22 -168 l22 -136 -67 -179 c-37 -98 -67 -192 -67 -209 0 -43 27
-73 71 -80 62 -10 80 16 166 241 l76 200 -10 68 c-5 37 -6 67 -3 66 3 0 31
-33 63 -72 l58 -71 -2 -186 c-3 -200 2 -223 47 -240 42 -16 64 -12 95 19 l29
29 0 226 0 225 -78 93 -78 93 22 115 c21 110 21 116 5 135 -10 11 -21 25 -25
32 -9 17 -86 267 -82 270 2 2 32 -51 67 -118 62 -119 67 -125 193 -240 142
-132 164 -142 213 -93 l25 25 182 -25 181 -26 139 50 c77 27 141 48 143 46 2
-1 -19 -15 -47 -30 -27 -15 -52 -31 -55 -36 -3 -5 10 -92 30 -193 19 -101 35
-191 35 -199 0 -10 -33 -29 -91 -53 -50 -21 -97 -48 -104 -59 -15 -24 -75
-334 -75 -388 0 -46 34 -78 82 -78 66 0 77 19 112 195 l31 158 115 49 c63 26
116 48 117 48 2 0 3 -56 3 -125 0 -116 3 -137 41 -273 63 -230 67 -241 99
-257 16 -8 39 -15 50 -15 29 0 80 53 80 82 0 13 -22 102 -49 199 l-49 177 5
158 5 159 -57 300 c-31 164 -61 307 -66 316 -13 26 -68 68 -96 75 -42 11 -156
-14 -189 -41 l-29 -24 25 -1 c14 -1 -31 -21 -100 -46 l-125 -45 -145 20 c-187
27 -204 27 -227 -3 l-19 -24 -96 87 c-86 77 -102 97 -157 198 -33 61 -61 114
-61 118 0 3 11 -7 24 -22 22 -25 25 -26 31 -10 14 34 -6 90 -43 128 -55 55
-164 75 -230 42z"/>
<path d="M110 185 l0 -185 825 0 826 0 -3 88 -3 87 -232 3 -233 2 0 85 c0 73
-3 86 -19 95 -13 6 -216 10 -590 10 l-571 0 0 -185z"/>
</g>
</svg>
